<svg id="visual" viewBox="0 0 960 300" width="960" height="300" xmlns="http://www.w3.org/2000/svg" xmlns:xlink="http://www.w3.org/1999/xlink" version="1.1"><rect x="0" y="0" width="960" height="300" fill="#ffffff"></rect><path d="M0 142L16 143.7C32 145.3 64 148.7 96 145.5C128 142.3 160 132.7 192 127.7C224 122.7 256 122.3 288 123C320 123.7 352 125.3 384 121.3C416 117.3 448 107.7 480 115C512 122.3 544 146.7 576 156.2C608 165.7 640 160.3 672 156.5C704 152.7 736 150.3 768 150.7C800 151 832 154 864 146.5C896 139 928 121 944 112L960 103L960 301L944 301C928 301 896 301 864 301C832 301 800 301 768 301C736 301 704 301 672 301C640 301 608 301 576 301C544 301 512 301 480 301C448 301 416 301 384 301C352 301 320 301 288 301C256 301 224 301 192 301C160 301 128 301 96 301C64 301 32 301 16 301L0 301Z" fill="#778D7F"></path><path d="M0 138L16 142C32 146 64 154 96 159.2C128 164.3 160 166.7 192 164.2C224 161.7 256 154.3 288 156.8C320 159.3 352 171.7 384 173.7C416 175.7 448 167.3 480 163.2C512 159 544 159 576 160.8C608 162.7 640 166.3 672 166.7C704 167 736 164 768 160.3C800 156.7 832 152.3 864 151.3C896 150.3 928 152.7 944 153.8L960 155L960 301L944 301C928 301 896 301 864 301C832 301 800 301 768 301C736 301 704 301 672 301C640 301 608 301 576 301C544 301 512 301 480 301C448 301 416 301 384 301C352 301 320 301 288 301C256 301 224 301 192 301C160 301 128 301 96 301C64 301 32 301 16 301L0 301Z" fill="#718F74"></path><path d="M0 183L16 180.7C32 178.3 64 173.7 96 170C128 166.3 160 163.7 192 162.8C224 162 256 163 288 163.5C320 164 352 164 384 167.2C416 170.3 448 176.7 480 182C512 187.3 544 191.7 576 195.2C608 198.7 640 201.3 672 201.7C704 202 736 200 768 191.3C800 182.7 832 167.3 864 168.7C896 170 928 188 944 197L960 206L960 301L944 301C928 301 896 301 864 301C832 301 800 301 768 301C736 301 704 301 672 301C640 301 608 301 576 301C544 301 512 301 480 301C448 301 416 301 384 301C352 301 320 301 288 301C256 301 224 301 192 301C160 301 128 301 96 301C64 301 32 301 16 301L0 301Z" fill="#96b699"></path><path d="M0 208L16 202.5C32 197 64 186 96 183C128 180 160 185 192 186.3C224 187.7 256 185.3 288 190.8C320 196.3 352 209.7 384 216.2C416 222.7 448 222.3 480 222C512 221.7 544 221.3 576 221C608 220.7 640 220.3 672 218C704 215.7 736 211.3 768 209.5C800 207.7 832 208.3 864 207.5C896 206.7 928 204.3 944 203.2L960 202L960 301L944 301C928 301 896 301 864 301C832 301 800 301 768 301C736 301 704 301 672 301C640 301 608 301 576 301C544 301 512 301 480 301C448 301 416 301 384 301C352 301 320 301 288 301C256 301 224 301 192 301C160 301 128 301 96 301C64 301 32 301 16 301L0 301Z" fill="#b0c8b2"></path><path d="M0 242L16 238C32 234 64 226 96 222C128 218 160 218 192 218.5C224 219 256 220 288 222.5C320 225 352 229 384 231.7C416 234.3 448 235.7 480 236.8C512 238 544 239 576 236.5C608 234 640 228 672 221.7C704 215.3 736 208.7 768 209.3C800 210 832 218 864 220.3C896 222.7 928 219.3 944 217.7L960 216L960 301L944 301C928 301 896 301 864 301C832 301 800 301 768 301C736 301 704 301 672 301C640 301 608 301 576 301C544 301 512 301 480 301C448 301 416 301 384 301C352 301 320 301 288 301C256 301 224 301 192 301C160 301 128 301 96 301C64 301 32 301 16 301L0 301Z" fill="#cadacb"></path><path d="M0 230L16 230.5C32 231 64 232 96 235.3C128 238.7 160 244.3 192 249.3C224 254.3 256 258.7 288 256C320 253.3 352 243.7 384 243.8C416 244 448 254 480 254C512 254 544 244 576 243C608 242 640 250 672 252.8C704 255.7 736 253.3 768 251.8C800 250.3 832 249.7 864 248.5C896 247.3 928 245.7 944 244.8L960 244L960 301L944 301C928 301 896 301 864 301C832 301 800 301 768 301C736 301 704 301 672 301C640 301 608 301 576 301C544 301 512 301 480 301C448 301 416 301 384 301C352 301 320 301 288 301C256 301 224 301 192 301C160 301 128 301 96 301C64 301 32 301 16 301L0 301Z" fill="#e4ece5"></path><path d="M0 276L16 277.2C32 278.3 64 280.7 96 279.3C128 278 160 273 192 271.8C224 270.7 256 273.3 288 273C320 272.7 352 269.3 384 267.7C416 266 448 266 480 268.2C512 270.3 544 274.7 576 275.2C608 275.7 640 272.3 672 271.8C704 271.3 736 273.7 768 272.7C800 271.7 832 267.3 864 266.2C896 265 928 267 944 268L960 269L960 301L944 301C928 301 896 301 864 301C832 301 800 301 768 301C736 301 704 301 672 301C640 301 608 301 576 301C544 301 512 301 480 301C448 301 416 301 384 301C352 301 320 301 288 301C256 301 224 301 192 301C160 301 128 301 96 301C64 301 32 301 16 301L0 301Z" fill="#ffffff"></path></svg>