<svg id="visual" viewBox="0 0 960 300" width="960" height="300" xmlns="http://www.w3.org/2000/svg" xmlns:xlink="http://www.w3.org/1999/xlink" version="1.1"><rect x="0" y="0" width="960" height="300" fill="#ffffff"></rect><path d="M0 69L16 68C32 67 64 65 96 67C128 69 160 75 192 81C224 87 256 93 288 91.8C320 90.7 352 82.3 384 76.3C416 70.3 448 66.7 480 67.3C512 68 544 73 576 78.2C608 83.3 640 88.7 672 91.2C704 93.7 736 93.3 768 88.7C800 84 832 75 864 70.5C896 66 928 66 944 66L960 66L960 0L944 0C928 0 896 0 864 0C832 0 800 0 768 0C736 0 704 0 672 0C640 0 608 0 576 0C544 0 512 0 480 0C448 0 416 0 384 0C352 0 320 0 288 0C256 0 224 0 192 0C160 0 128 0 96 0C64 0 32 0 16 0L0 0Z" fill="#778D7F"></path><path d="M0 71L16 71C32 71 64 71 96 73.2C128 75.3 160 79.7 192 80.7C224 81.7 256 79.3 288 75.7C320 72 352 67 384 66.2C416 65.3 448 68.7 480 69.3C512 70 544 68 576 67C608 66 640 66 672 68.3C704 70.7 736 75.3 768 74.8C800 74.3 832 68.7 864 69.2C896 69.7 928 76.3 944 79.7L960 83L960 0L944 0C928 0 896 0 864 0C832 0 800 0 768 0C736 0 704 0 672 0C640 0 608 0 576 0C544 0 512 0 480 0C448 0 416 0 384 0C352 0 320 0 288 0C256 0 224 0 192 0C160 0 128 0 96 0C64 0 32 0 16 0L0 0Z" fill="#718F74"></path><path d="M0 53L16 54C32 55 64 57 96 59C128 61 160 63 192 63.8C224 64.7 256 64.3 288 63.2C320 62 352 60 384 58.5C416 57 448 56 480 56C512 56 544 57 576 55.5C608 54 640 50 672 51C704 52 736 58 768 62C800 66 832 68 864 64.8C896 61.7 928 53.3 944 49.2L960 45L960 0L944 0C928 0 896 0 864 0C832 0 800 0 768 0C736 0 704 0 672 0C640 0 608 0 576 0C544 0 512 0 480 0C448 0 416 0 384 0C352 0 320 0 288 0C256 0 224 0 192 0C160 0 128 0 96 0C64 0 32 0 16 0L0 0Z" fill="#a0bda3"></path><path d="M0 32L16 31.7C32 31.3 64 30.7 96 32.3C128 34 160 38 192 40.5C224 43 256 44 288 45C320 46 352 47 384 45.2C416 43.3 448 38.7 480 38.5C512 38.3 544 42.7 576 44.2C608 45.7 640 44.3 672 45C704 45.7 736 48.3 768 48.2C800 48 832 45 864 43.7C896 42.3 928 42.7 944 42.8L960 43L960 0L944 0C928 0 896 0 864 0C832 0 800 0 768 0C736 0 704 0 672 0C640 0 608 0 576 0C544 0 512 0 480 0C448 0 416 0 384 0C352 0 320 0 288 0C256 0 224 0 192 0C160 0 128 0 96 0C64 0 32 0 16 0L0 0Z" fill="#c0d3c1"></path><path d="M0 39L16 36C32 33 64 27 96 24.3C128 21.7 160 22.3 192 24.5C224 26.7 256 30.3 288 30C320 29.7 352 25.3 384 23.5C416 21.7 448 22.3 480 23.8C512 25.3 544 27.7 576 28.5C608 29.3 640 28.7 672 28.8C704 29 736 30 768 31.5C800 33 832 35 864 33.7C896 32.3 928 27.7 944 25.3L960 23L960 0L944 0C928 0 896 0 864 0C832 0 800 0 768 0C736 0 704 0 672 0C640 0 608 0 576 0C544 0 512 0 480 0C448 0 416 0 384 0C352 0 320 0 288 0C256 0 224 0 192 0C160 0 128 0 96 0C64 0 32 0 16 0L0 0Z" fill="#dfe9e0"></path><path d="M0 11L16 12.7C32 14.3 64 17.7 96 17.7C128 17.7 160 14.3 192 14.2C224 14 256 17 288 16.5C320 16 352 12 384 10.8C416 9.7 448 11.3 480 13.7C512 16 544 19 576 20.2C608 21.3 640 20.7 672 20.8C704 21 736 22 768 21.8C800 21.7 832 20.3 864 18.2C896 16 928 13 944 11.5L960 10L960 0L944 0C928 0 896 0 864 0C832 0 800 0 768 0C736 0 704 0 672 0C640 0 608 0 576 0C544 0 512 0 480 0C448 0 416 0 384 0C352 0 320 0 288 0C256 0 224 0 192 0C160 0 128 0 96 0C64 0 32 0 16 0L0 0Z" fill="#ffffff"></path></svg>